<?xml version="1.0" encoding="utf-8"?><!-- Uploaded to: SVG Repo, www.svgrepo.com, Generator: SVG Repo Mixer Tools -->
<svg fill="#000000" width="800px" height="800px" viewBox="0 0 24 24" id="file-favorite-alt" data-name="Flat Line" xmlns="http://www.w3.org/2000/svg" class="icon flat-line"><path id="secondary" d="M19.71,7.71,15.29,3.29a1,1,0,0,0-.7-.29H5A1,1,0,0,0,4,4V20a1,1,0,0,0,1,1H19a1,1,0,0,0,1-1V8.41A1,1,0,0,0,19.71,7.71Zm-4.34,5-.92.91L12,16,9.55,13.57l-.92-.91a2.14,2.14,0,0,1,0-3,2.17,2.17,0,0,1,3.06,0l.31.3.31-.3a2.17,2.17,0,0,1,3.06,0A2.14,2.14,0,0,1,15.37,12.66Z" style="fill: rgb(44, 169, 188); stroke-width: 2;"></path><path id="primary" d="M15.37,9.63a2.14,2.14,0,0,1,0,3l-.92.91L12,16,9.55,13.57l-.92-.91a2.14,2.14,0,0,1,0-3,2.17,2.17,0,0,1,3.06,0l.31.3.31-.3A2.17,2.17,0,0,1,15.37,9.63Zm4.34-1.92L15.29,3.29a1,1,0,0,0-.7-.29H5A1,1,0,0,0,4,4V20a1,1,0,0,0,1,1H19a1,1,0,0,0,1-1V8.41A1,1,0,0,0,19.71,7.71Z" style="fill: none; stroke: rgb(0, 0, 0); stroke-linecap: round; stroke-linejoin: round; stroke-width: 2;"></path></svg>